<!--?xml version="1.0" standalone="no"?-->
              <svg id="sw-js-blob-svg" viewBox="0 0 100 100" xmlns="http://www.w3.org/2000/svg" version="1.1">
                    <defs> 
                        <linearGradient id="sw-gradient" x1="0" x2="1" y1="1" y2="0">
                            <stop id="stop1" stop-color="rgba(127, 185, 68, 0.5)" offset="0%"></stop>
                            <stop id="stop2" stop-color="rgba(251, 168, 31, 1)" offset="100%"></stop>
                        </linearGradient>
                    </defs>
                <path fill="rgba(127, 185, 68, 0.5)" d="M18.2,-26.2C22.8,-21.8,25.2,-15.3,29.1,-8.3C33,-1.2,38.4,6.5,35.4,10.2C32.4,13.9,21,13.4,13.6,18.1C6.3,22.8,3.2,32.6,-1.1,34C-5.3,35.5,-10.5,28.6,-16.6,23.5C-22.7,18.5,-29.5,15.1,-32,9.8C-34.5,4.5,-32.7,-2.7,-30.8,-10.5C-28.9,-18.2,-27,-26.3,-21.9,-30.6C-16.7,-34.9,-8.4,-35.2,-0.8,-34.2C6.8,-33.1,13.6,-30.6,18.2,-26.2Z" width="100%" height="100%" transform="translate(50 50)" stroke-width="0" style="transition: all 0.3s ease 0s;" stroke="url(#sw-gradient)"></path>
              </svg>